<?xml version="1.0" standalone="no"?>
<!DOCTYPE svg PUBLIC "-//W3C//DTD SVG 20010904//EN"
 "http://www.w3.org/TR/2001/REC-SVG-20010904/DTD/svg10.dtd">
<svg version="1.0" xmlns="http://www.w3.org/2000/svg"
 width="500.000000pt" height="500.000000pt" viewBox="0 0 500.000000 500.000000"
 preserveAspectRatio="xMidYMid meet">

<g transform="translate(0.000000,500.000000) scale(0.100000,-0.100000)"
fill="#000000" stroke="none">
<path d="M1015 4223 c-151 -31 -229 -59 -303 -107 -20 -14 -57 -33 -82 -42
-75 -29 -151 -88 -176 -136 -19 -36 -18 -121 1 -158 20 -39 32 -38 27 3 l-4
33 69 12 c104 20 161 25 197 18 48 -9 119 -60 150 -107 26 -38 27 -46 25 -150
-2 -75 1 -113 9 -121 7 -7 12 -20 12 -30 0 -10 4 -18 9 -18 5 0 11 -14 15 -32
3 -17 26 -86 50 -152 25 -67 52 -148 61 -181 93 -332 183 -515 319 -650 45
-44 110 -118 146 -163 83 -107 143 -163 216 -202 33 -17 78 -44 100 -60 40
-29 42 -32 59 -122 9 -51 22 -104 28 -117 19 -38 14 -190 -6 -226 -9 -16 -13
-31 -8 -33 4 -1 6 -15 3 -30 -6 -35 -175 -204 -195 -196 -8 3 -21 -1 -28 -9
-17 -18 -48 -8 -91 28 -16 14 -35 25 -43 25 -7 0 -18 7 -25 15 -7 8 -20 15
-30 15 -9 0 -24 8 -33 18 -9 9 -31 24 -49 33 -91 45 -91 44 -95 32 -8 -23 -44
-13 -76 21 -40 42 -60 53 -149 76 -69 18 -73 18 -142 0 -136 -34 -249 11 -331
132 -18 28 -44 56 -58 63 -22 11 -28 11 -42 -5 -15 -17 -14 -23 19 -88 21 -41
33 -77 30 -89 -3 -12 1 -34 10 -50 10 -21 12 -33 5 -40 -21 -21 17 -57 126
-121 82 -49 231 -97 408 -132 100 -20 236 -105 278 -174 10 -16 32 -37 49 -46
17 -9 81 -65 141 -125 l111 -110 -32 -13 c-36 -15 -79 -5 -112 25 -30 27 -21
-5 10 -37 37 -37 87 -46 136 -26 l38 16 52 -43 c60 -52 208 -148 251 -165 45
-18 142 -17 209 2 55 15 61 15 78 -1 24 -21 16 -28 -14 -12 -21 11 -22 11 -9
-5 20 -24 65 -46 94 -46 35 0 231 -72 316 -116 40 -22 94 -50 119 -62 37 -19
246 -199 273 -235 3 -4 252 -6 554 -5 l549 3 -65 54 c-35 29 -91 77 -124 107
-111 97 -221 188 -314 259 -113 86 -226 176 -266 212 -30 27 -150 131 -255
222 -30 26 -86 69 -125 94 -38 26 -81 55 -95 65 -33 25 -67 35 -74 23 -4 -6
-13 -8 -21 -4 -9 3 -26 -2 -40 -11 -32 -21 -40 -20 -116 9 -108 43 -149 67
-149 91 0 51 23 192 36 221 8 17 14 38 14 47 0 13 6 15 28 11 26 -6 26 -6 7
10 -15 12 -17 19 -9 33 6 9 9 35 6 57 -3 33 -2 38 9 28 16 -15 33 -17 24 -3
-9 15 46 12 95 -5 23 -8 60 -15 81 -15 24 0 74 -16 129 -41 50 -22 107 -43
128 -46 l37 -6 -24 22 c-13 11 -31 21 -40 22 -9 1 -5 4 9 8 21 7 16 10 -35 21
-58 14 -88 31 -83 47 1 4 -11 10 -28 14 l-29 5 36 7 c25 5 45 2 68 -9 71 -35
341 -135 423 -156 71 -18 89 -27 98 -47 8 -18 14 -21 22 -13 21 21 75 14 92
-10 9 -12 16 -18 16 -13 0 5 9 0 20 -11 32 -31 49 -44 60 -44 5 0 10 -4 10
-10 0 -17 17 -11 49 16 17 14 37 24 43 21 7 -2 20 -1 29 4 14 7 66 3 226 -21
36 -5 76 -18 94 -30 34 -25 46 -22 30 9 -15 27 2 36 32 16 37 -24 87 -36 88
-22 0 7 4 2 9 -10 9 -22 39 -31 53 -17 3 4 1 16 -5 28 -11 21 -11 21 11 2 31
-28 26 -6 -11 45 l-31 44 41 -37 c58 -52 83 -51 42 2 -27 34 -25 42 8 34 36
-9 188 -85 243 -122 104 -70 158 -85 144 -41 -5 14 -1 19 14 19 27 0 51 10 51
22 0 36 -69 136 -140 206 -37 36 -34 36 48 1 62 -27 70 -22 76 45 8 80 -32
137 -158 224 -40 27 -46 36 -40 55 11 35 4 146 -12 194 -22 64 -66 133 -116
180 -24 23 -61 64 -83 93 -22 29 -62 70 -90 90 -61 46 -127 112 -220 217 -43
49 -112 111 -178 159 -60 43 -156 117 -215 163 -186 147 -328 227 -527 299
-112 41 -254 96 -290 112 -11 5 -72 25 -135 46 -63 20 -139 50 -168 67 -54 29
-76 34 -272 62 -137 19 -209 34 -240 50 -14 7 -43 16 -65 20 -133 23 -425 169
-489 245 -14 17 -26 35 -26 39 0 4 -9 17 -20 29 -21 23 -60 104 -60 126 0 7
-11 23 -25 36 -14 13 -25 28 -25 33 0 16 -97 104 -147 133 -26 15 -55 34 -64
41 -42 35 -184 61 -254 46z m1365 -2704 c0 -9 3 -19 7 -23 23 -23 42 -110 59
-269 l7 -68 -54 22 c-70 29 -188 59 -204 53 -7 -3 -15 -19 -19 -35 -3 -18 -10
-28 -17 -24 -14 9 -159 45 -181 45 -26 0 -45 -25 -52 -69 -8 -53 12 -85 70
-112 42 -20 56 -42 58 -89 1 -16 10 -29 28 -38 l27 -13 -25 -36 c-13 -20 -24
-39 -24 -44 0 -20 -64 18 -112 67 -29 30 -60 57 -70 60 -14 4 -18 16 -18 51 0
55 11 94 53 183 32 70 55 98 217 265 58 61 121 134 140 162 l33 53 39 -63 c21
-34 38 -69 38 -78z"/>
</g>
</svg>
