<svg width="271" height="97" viewBox="0 0 271 97" fill="none" xmlns="http://www.w3.org/2000/svg">
<path d="M138.597 38.3813C137.498 38.8556 136.297 39.0928 134.995 39.0928C133.693 39.0928 132.487 38.8607 131.377 38.3965C130.277 37.9222 129.319 37.2612 128.501 36.4136C127.684 35.5558 127.048 34.5518 126.594 33.4014C126.14 32.251 125.913 30.9997 125.913 29.6475C125.913 28.2952 126.14 27.0439 126.594 25.8936C127.048 24.7432 127.684 23.7441 128.501 22.8965C129.319 22.0387 130.277 21.3778 131.377 20.9136C132.487 20.4393 133.693 20.2021 134.995 20.2021C136.297 20.2021 137.498 20.4393 138.597 20.9136C139.707 21.3778 140.671 22.0387 141.489 22.8965C142.306 23.7441 142.937 24.7432 143.381 25.8936C143.835 27.0439 144.062 28.2952 144.062 29.6475C144.062 30.9997 143.835 32.251 143.381 33.4014C142.937 34.5417 142.306 35.5407 141.489 36.3984C140.671 37.2461 139.707 37.9071 138.597 38.3813Z" fill="white" fill-opacity="0.8"/>
<path d="M175.946 38.3208C175.128 38.7951 174.19 39.0322 173.13 39.0322C172.121 39.0322 171.213 38.8153 170.406 38.3813C169.609 37.9474 168.968 37.347 168.483 36.5801C167.999 35.8132 167.716 34.9352 167.636 33.9463V32.917C167.716 31.9281 168.004 31.0501 168.499 30.2832C168.993 29.5062 169.639 28.8957 170.436 28.4517C171.243 28.0077 172.146 27.7856 173.145 27.7856C174.195 27.7856 175.123 28.0278 175.931 28.5122C176.748 28.9966 177.389 29.6626 177.853 30.5103C178.317 31.3478 178.549 32.3166 178.549 33.4165C178.549 34.5063 178.317 35.4751 177.853 36.3228C177.399 37.1704 176.763 37.8364 175.946 38.3208Z" fill="white" fill-opacity="0.8"/>
<path d="M210.025 32.5234H199.611C199.711 31.585 199.994 30.7676 200.458 30.0713C200.932 29.3649 201.543 28.8149 202.29 28.4214C203.047 28.0278 203.894 27.8311 204.833 27.8311C205.761 27.8311 206.594 28.0278 207.33 28.4214C208.077 28.8149 208.682 29.3649 209.147 30.0713C209.621 30.7676 209.914 31.585 210.025 32.5234Z" fill="white" fill-opacity="0.8"/>
<path d="M131.014 70.3135H126.912V60.6562H131.014C133.052 60.6562 134.627 61.0801 135.737 61.9277C136.847 62.7754 137.402 63.9561 137.402 65.4697C137.402 66.9834 136.847 68.1691 135.737 69.0269C134.627 69.8846 133.052 70.3135 131.014 70.3135Z" fill="white" fill-opacity="0.8"/>
<path d="M154.994 72.5234H144.579C144.68 71.585 144.963 70.7676 145.427 70.0713C145.901 69.3649 146.512 68.8149 147.259 68.4214C148.016 68.0278 148.863 67.8311 149.802 67.8311C150.73 67.8311 151.563 68.0278 152.299 68.4214C153.046 68.8149 153.651 69.3649 154.116 70.0713C154.59 70.7676 154.883 71.585 154.994 72.5234Z" fill="white" fill-opacity="0.8"/>
<path fill-rule="evenodd" clip-rule="evenodd" d="M0 0H270.806V97H55.1375C55.6128 96.5742 55.9916 96.2586 56.1633 96.16C56.6101 95.92 57.5754 95.36 58.2904 94.92C59.8098 94.04 63.3133 92.6 63.9389 92.6C64.4573 92.6 65.2616 92.16 65.6191 91.68C65.8515 91.36 65.8336 91.36 65.4583 91.58C64.922 91.9 64.779 91.76 65.208 91.34C65.5119 91.02 65.6191 91.02 66.6022 91.32C67.7999 91.7 69.5338 91.72 70.3381 91.36C71.1068 91.02 73.7523 89.1 74.8248 88.06L75.7542 87.2L76.4335 87.52C77.3094 87.92 78.2031 87.74 78.8645 87C79.4186 86.36 79.5795 85.72 79.0433 86.26C78.4534 86.86 77.6848 87.06 77.0413 86.76L76.4693 86.5L78.4534 84.3C79.5259 83.1 80.6699 81.98 80.9738 81.8C81.2776 81.62 81.6709 81.2 81.8496 80.88C82.6004 79.5 85.0314 77.8 86.8189 77.4C89.9827 76.7 92.6461 75.74 94.1119 74.76C96.0602 73.48 96.7395 72.76 96.3641 72.34C96.239 72.2 96.2747 71.96 96.4535 71.54C96.6144 71.22 96.6859 70.78 96.6323 70.54C96.5786 70.3 96.7931 69.58 97.1685 68.76C97.7584 67.46 97.7763 67.34 97.5081 67C97.2579 66.68 97.1506 66.68 96.7574 66.9C96.5071 67.04 96.0424 67.6 95.7206 68.16C94.2549 70.58 92.235 71.48 89.804 70.8C88.5706 70.44 88.4991 70.44 87.2658 70.8C85.6749 71.26 85.3174 71.48 84.6024 72.32C84.0304 73 83.3869 73.2 83.2439 72.74L83.2432 72.7377C83.1724 72.4999 83.1673 72.4828 81.5458 73.38C81.224 73.56 80.8307 73.86 80.6699 74.04C80.509 74.24 80.2409 74.4 80.08 74.4C79.9013 74.4 79.6689 74.54 79.5438 74.7C79.4186 74.86 79.222 75 79.0969 75C78.9539 75 78.6143 75.22 78.3283 75.5C77.5596 76.22 77.0055 76.42 76.7016 76.06C76.5765 75.9 76.3441 75.82 76.2011 75.88C75.8436 76.04 72.8228 72.66 72.7155 71.96C72.6619 71.66 72.6976 71.38 72.7691 71.36C72.8585 71.32 72.787 71.02 72.6261 70.7C72.2686 69.98 72.1793 66.94 72.5189 66.18C72.6261 65.92 72.8585 64.86 73.0194 63.84C73.3232 62.04 73.359 61.98 74.074 61.4C74.4673 61.08 75.2716 60.54 75.8615 60.2C77.1664 59.42 78.2389 58.3 79.7225 56.16C80.366 55.26 81.5279 53.78 82.3323 52.9C84.7633 50.2 86.372 46.54 88.0344 39.9C88.1953 39.24 88.6779 37.62 89.1248 36.28C89.5537 34.96 89.9649 33.58 90.0185 33.24C90.09 32.88 90.1973 32.6 90.2866 32.6C90.376 32.6 90.4475 32.44 90.4475 32.24C90.4475 32.04 90.5369 31.78 90.662 31.64C90.805 31.48 90.8586 30.72 90.8229 29.22C90.7871 27.14 90.805 26.98 91.2698 26.22C91.8239 25.28 93.093 24.26 93.951 24.08C94.5945 23.94 95.6134 24.04 97.4724 24.44L98.7057 24.68L98.6343 25.34C98.5449 26.16 98.7594 26.18 99.1169 25.4C99.4565 24.66 99.4744 22.96 99.1348 22.24C98.6879 21.28 97.3294 20.1 95.9888 19.52C95.5419 19.34 94.8805 18.96 94.523 18.68C93.2003 17.72 91.806 17.16 89.1069 16.54C87.8556 16.24 85.3174 16.76 84.5666 17.46C84.4058 17.6 83.8874 17.98 83.4226 18.28C82.5289 18.86 80.795 20.62 80.795 20.94C80.795 21.04 80.5984 21.34 80.3481 21.6C80.0979 21.86 79.9013 22.18 79.9013 22.32C79.9013 22.76 79.2041 24.38 78.8288 24.84C78.6321 25.08 78.4713 25.34 78.4713 25.42C78.4713 25.5 78.2568 25.86 78.0065 26.2C76.8625 27.72 71.643 30.64 69.2656 31.1C68.8724 31.18 68.354 31.36 68.1038 31.5C67.5496 31.82 66.2626 32.12 63.8138 32.5C60.3103 33.06 59.917 33.16 58.9518 33.74C58.4334 34.08 57.0749 34.68 55.9488 35.08C55.8429 35.1195 55.7373 35.1588 55.6328 35.1977C55.5469 35.2296 55.4617 35.2613 55.3776 35.2926C54.4754 35.6282 53.6986 35.9171 53.5356 36C52.8921 36.32 50.3539 37.42 48.3519 38.24C44.7948 39.68 42.2565 41.28 38.9318 44.22C37.8771 45.14 36.1611 46.62 35.0886 47.48C33.9089 48.44 32.6755 49.68 31.9069 50.66C30.2445 52.76 29.0648 54.08 27.9744 55C27.4739 55.4 26.7589 56.22 26.3656 56.8C25.9724 57.38 25.311 58.2 24.882 58.66C23.9883 59.6 23.2018 60.98 22.8085 62.26C22.5225 63.22 22.3974 65.44 22.594 66.14C22.7013 66.52 22.594 66.7 21.879 67.24C19.6268 68.98 18.9118 70.12 19.0548 71.72C19.162 73.06 19.305 73.16 20.4133 72.62C21.879 71.92 21.9326 71.92 21.2713 72.64C20.0021 74.04 18.7688 76.04 18.7688 76.76C18.7688 77 19.1978 77.2 19.6804 77.2C19.9485 77.2 20.02 77.3 19.9306 77.58C19.6804 78.46 20.6456 78.16 22.5046 76.76C23.4878 76.02 26.2048 74.5 26.8483 74.32C27.4381 74.16 27.4739 74.32 26.9913 75C26.2584 76.06 26.7053 76.08 27.742 75.04L28.4749 74.3L27.9208 75.18C27.2594 76.2 27.17 76.64 27.7241 76.08C27.929 75.8821 28.0271 75.7872 28.0463 75.8011C28.064 75.814 28.015 75.9188 27.9208 76.12C27.8135 76.36 27.7778 76.6 27.8314 76.68C28.0816 76.96 28.6179 76.78 28.7788 76.34C28.8681 76.1 28.9396 76 28.9396 76.14C28.9575 76.42 29.8513 76.18 30.5126 75.7C31.0489 75.3 31.3528 75.48 31.0846 76.02C30.7986 76.64 31.0131 76.7 31.6209 76.2C31.9426 75.96 32.6576 75.7 33.3011 75.6C36.1611 75.12 37.0906 75.04 37.3409 75.18C37.5018 75.28 37.7341 75.3 37.8593 75.26C37.9665 75.2 38.324 75.4 38.6279 75.68C39.1999 76.22 39.5038 76.34 39.5038 76C39.5038 75.88 39.5931 75.8 39.6825 75.8C39.8791 75.8 40.183 75.54 40.755 74.92C40.9516 74.7 41.1125 74.6 41.1125 74.7C41.1125 74.8 41.2376 74.68 41.3985 74.44C41.7024 73.96 42.6676 73.82 43.043 74.24C43.186 74.4 43.2933 74.34 43.4363 73.98C43.5971 73.58 43.9189 73.4 45.188 73.04C46.6538 72.62 51.48 70.62 52.7491 69.92C53.1603 69.7 53.5178 69.64 53.9646 69.74L54.6081 69.88L54.0898 69.98C53.7859 70.06 53.5714 70.18 53.5893 70.26C53.6786 70.58 53.1424 70.92 52.1056 71.2C51.194 71.42 51.1046 71.48 51.48 71.62C51.7303 71.7 51.8018 71.76 51.6409 71.78C51.48 71.8 51.1583 72 50.9259 72.22L50.4969 72.66L51.1583 72.54C51.5336 72.48 52.5525 72.06 53.4463 71.62C54.4294 71.12 55.3231 70.8 55.7521 70.8C56.1275 70.8 56.7889 70.66 57.2 70.5C58.0759 70.16 59.059 70.1 58.8981 70.4C58.7373 70.68 59.0411 70.64 59.3271 70.34C59.5238 70.14 59.5416 70.24 59.488 70.9C59.4344 71.34 59.488 71.86 59.5953 72.04C59.7383 72.32 59.7025 72.46 59.4344 72.7C59.2658 72.8588 59.1809 72.9388 59.195 72.9644C59.2093 72.9904 59.3254 72.9604 59.5595 72.9C59.9528 72.82 60.06 72.86 60.06 73.12C60.06 73.3 60.1673 73.72 60.3103 74.06C60.5426 74.64 60.9538 77.46 60.9538 78.48C60.9538 78.96 60.2209 79.44 58.2904 80.3C56.9319 80.88 56.7889 80.9 56.2169 80.48C55.9666 80.3 55.6628 80.2 55.5019 80.26C55.3589 80.34 55.198 80.3 55.1265 80.18C55.0014 79.94 54.3936 80.14 53.8038 80.64C53.6421 80.7691 53.2644 81.0568 52.8341 81.3844C52.598 81.5641 52.3462 81.7558 52.1056 81.94C51.4085 82.44 50.4075 83.3 49.8713 83.82C47.9944 85.64 45.8494 87.72 45.3131 88.26C44.5981 88.98 42.5783 90.78 40.5584 92.5C39.0918 93.7528 37.3887 95.3168 35.6455 97H0V0ZM130.272 40.5762C131.715 41.1615 133.29 41.4541 134.995 41.4541C136.7 41.4541 138.269 41.1615 139.702 40.5762C141.135 39.9909 142.382 39.1685 143.441 38.1089C144.501 37.0392 145.323 35.7879 145.908 34.355C146.494 32.9119 146.786 31.3428 146.786 29.6475C146.786 27.9421 146.494 26.3729 145.908 24.9399C145.323 23.4969 144.501 22.2456 143.441 21.186C142.382 20.1265 141.135 19.304 139.702 18.7188C138.269 18.1335 136.7 17.8408 134.995 17.8408C133.29 17.8408 131.715 18.1335 130.272 18.7188C128.839 19.304 127.593 20.1265 126.533 21.186C125.474 22.2456 124.651 23.4969 124.066 24.9399C123.481 26.3729 123.188 27.9421 123.188 29.6475C123.188 31.3428 123.481 32.9119 124.066 34.355C124.651 35.7879 125.474 37.0392 126.533 38.1089C127.593 39.1685 128.839 39.9909 130.272 40.5762ZM150.801 37.3521L150.15 39.6831C151.714 40.7629 153.399 41.3027 155.205 41.3027C156.295 41.3027 157.254 41.111 158.081 40.7275C158.919 40.3441 159.57 39.8143 160.034 39.1382C160.508 38.452 160.745 37.6649 160.745 36.7769C160.745 35.8787 160.518 35.1522 160.064 34.5972C159.62 34.0321 159.06 33.5729 158.384 33.2197C157.708 32.8564 157.022 32.5335 156.326 32.251C155.538 31.9281 154.923 31.6354 154.479 31.373C154.035 31.1107 153.717 30.8483 153.525 30.5859C153.344 30.3135 153.253 30.0158 153.253 29.6929C153.253 29.1278 153.48 28.6787 153.934 28.3457C154.388 28.0026 154.983 27.8311 155.72 27.8311C156.114 27.8311 156.532 27.8765 156.976 27.9673C157.42 28.0581 157.854 28.1893 158.278 28.3608C158.702 28.5223 159.075 28.709 159.398 28.9209L160.14 26.6807C158.697 25.9339 157.229 25.5605 155.735 25.5605C154.746 25.5605 153.868 25.7321 153.101 26.0752C152.345 26.4183 151.754 26.9027 151.33 27.5283C150.907 28.154 150.695 28.8906 150.695 29.7383C150.695 30.6263 150.912 31.3428 151.346 31.8877C151.79 32.4326 152.345 32.8716 153.011 33.2046C153.677 33.5376 154.348 33.8353 155.024 34.0977C155.579 34.3096 156.099 34.5316 156.583 34.7637C157.067 34.9958 157.456 35.2733 157.748 35.5962C158.051 35.909 158.203 36.3076 158.203 36.792C158.203 37.458 157.915 37.9979 157.34 38.4116C156.765 38.8254 156.008 39.0322 155.069 39.0322C154.544 39.0322 154.025 38.9666 153.51 38.8354C152.995 38.6942 152.506 38.4974 152.042 38.2451C151.578 37.9928 151.164 37.6951 150.801 37.3521ZM165.153 48.5684H167.636V38.9565C168.342 39.6932 169.18 40.2684 170.148 40.6821C171.127 41.0959 172.187 41.3027 173.327 41.3027C174.811 41.3027 176.138 40.9596 177.308 40.2734C178.489 39.5872 179.417 38.6488 180.093 37.458C180.779 36.2673 181.123 34.9251 181.123 33.4316C181.123 31.9281 180.779 30.5859 180.093 29.4053C179.417 28.2145 178.489 27.276 177.308 26.5898C176.138 25.9036 174.811 25.5605 173.327 25.5605C172.136 25.5605 171.041 25.7876 170.042 26.2417C169.043 26.6857 168.191 27.2962 167.484 28.0732L167.363 25.8633H165.153V48.5684ZM185.394 41H187.877V33.4316C187.877 32.3317 188.088 31.3579 188.512 30.5103C188.936 29.6626 189.526 28.9966 190.283 28.5122C191.05 28.0278 191.928 27.7856 192.917 27.7856C193.462 27.7856 194.012 27.8512 194.567 27.9824L194.87 25.7422C194.587 25.6816 194.305 25.6362 194.022 25.606C193.74 25.5757 193.462 25.5605 193.19 25.5605C191.948 25.5605 190.848 25.8532 189.89 26.4385C188.941 27.0137 188.205 27.821 187.68 28.8604L187.574 25.8633H185.394V41ZM205.287 41.3027C207.547 41.3027 209.616 40.5812 211.493 39.1382L210.342 37.3218C208.91 38.4621 207.325 39.0322 205.59 39.0322C204.58 39.0322 203.667 38.8506 202.85 38.4873C202.032 38.124 201.346 37.6144 200.791 36.9585C200.246 36.3026 199.883 35.5306 199.701 34.6426H212.371V34.1582C212.371 32.4629 212.048 30.9694 211.402 29.6777C210.756 28.3861 209.853 27.377 208.693 26.6504C207.542 25.9238 206.21 25.5605 204.696 25.5605C203.223 25.5605 201.906 25.8936 200.746 26.5596C199.585 27.2256 198.672 28.1388 198.006 29.2993C197.34 30.4497 197.007 31.7616 197.007 33.2349C197.007 34.7687 197.365 36.1462 198.082 37.3672C198.808 38.5781 199.797 39.5368 201.049 40.2432C202.3 40.9495 203.713 41.3027 205.287 41.3027ZM218.277 48.5684H220.987L230.371 25.8633H227.677L222.652 38.0181L216.96 25.8633H214.22L221.456 40.8789L218.277 48.5684ZM234.34 24.8037H235.808L237.701 17.9922H235.869L234.34 24.8037ZM242.305 37.3521L241.654 39.6831C243.218 40.7629 244.904 41.3027 246.71 41.3027C247.8 41.3027 248.758 41.111 249.586 40.7275C250.423 40.3441 251.074 39.8143 251.539 39.1382C252.013 38.452 252.25 37.6649 252.25 36.7769C252.25 35.8787 252.023 35.1522 251.569 34.5972C251.125 34.0321 250.565 33.5729 249.889 33.2197C249.213 32.8564 248.526 32.5335 247.83 32.251C247.043 31.9281 246.427 31.6354 245.983 31.373C245.539 31.1107 245.221 30.8483 245.03 30.5859C244.848 30.3135 244.757 30.0158 244.757 29.6929C244.757 29.1278 244.984 28.6787 245.438 28.3457C245.893 28.0026 246.488 27.8311 247.225 27.8311C247.618 27.8311 248.037 27.8765 248.481 27.9673C248.925 28.0581 249.359 28.1893 249.783 28.3608C250.207 28.5223 250.58 28.709 250.903 28.9209L251.645 26.6807C250.201 25.9339 248.733 25.5605 247.24 25.5605C246.251 25.5605 245.373 25.7321 244.606 26.0752C243.849 26.4183 243.259 26.9027 242.835 27.5283C242.411 28.154 242.199 28.8906 242.199 29.7383C242.199 30.6263 242.416 31.3428 242.85 31.8877C243.294 32.4326 243.849 32.8716 244.515 33.2046C245.181 33.5376 245.852 33.8353 246.528 34.0977C247.083 34.3096 247.603 34.5316 248.087 34.7637C248.572 34.9958 248.96 35.2733 249.253 35.5962C249.556 35.909 249.707 36.3076 249.707 36.792C249.707 37.458 249.419 37.9979 248.844 38.4116C248.269 38.8254 247.512 39.0322 246.574 39.0322C246.049 39.0322 245.529 38.9666 245.015 38.8354C244.5 38.6942 244.011 38.4974 243.546 38.2451C243.082 37.9928 242.668 37.6951 242.305 37.3521ZM124.248 58.2949V81H126.912V72.6748H131.241C133.098 72.6748 134.687 72.3872 136.009 71.812C137.341 71.2267 138.36 70.3942 139.067 69.3145C139.773 68.2347 140.126 66.9531 140.126 65.4697C140.126 63.9762 139.773 62.6947 139.067 61.625C138.36 60.5553 137.341 59.7329 136.009 59.1577C134.687 58.5825 133.098 58.2949 131.241 58.2949H124.248ZM150.256 81.3027C152.516 81.3027 154.585 80.5812 156.462 79.1382L155.311 77.3218C153.878 78.4621 152.294 79.0322 150.558 79.0322C149.549 79.0322 148.636 78.8506 147.819 78.4873C147.001 78.124 146.315 77.6144 145.76 76.9585C145.215 76.3026 144.852 75.5306 144.67 74.6426H157.34V74.1582C157.34 72.4629 157.017 70.9694 156.371 69.6777C155.725 68.3861 154.822 67.377 153.661 66.6504C152.511 65.9238 151.179 65.5605 149.665 65.5605C148.192 65.5605 146.875 65.8936 145.715 66.5596C144.554 67.2256 143.641 68.1388 142.975 69.2993C142.309 70.4497 141.976 71.7616 141.976 73.2349C141.976 74.7687 142.334 76.1462 143.051 77.3672C143.777 78.5781 144.766 79.5368 146.017 80.2432C147.269 80.9495 148.682 81.3027 150.256 81.3027ZM161.611 81H164.094V73.4316C164.094 72.3317 164.306 71.3579 164.729 70.5103C165.153 69.6626 165.744 68.9966 166.5 68.5122C167.267 68.0278 168.145 67.7856 169.134 67.7856C169.679 67.7856 170.229 67.8512 170.784 67.9824L171.087 65.7422C170.804 65.6816 170.522 65.6362 170.239 65.606C169.957 65.5757 169.679 65.5605 169.407 65.5605C168.166 65.5605 167.066 65.8532 166.107 66.4385C165.158 67.0137 164.422 67.821 163.897 68.8604L163.791 65.8633H161.611V81ZM184.395 80.667C185.404 80.2331 186.277 79.6175 187.014 78.8203L185.515 77.2764C184.99 77.8314 184.355 78.2653 183.608 78.5781C182.861 78.8809 182.074 79.0322 181.247 79.0322C180.187 79.0322 179.244 78.7951 178.416 78.3208C177.599 77.8364 176.953 77.1704 176.479 76.3228C176.014 75.4751 175.782 74.5063 175.782 73.4165C175.782 72.3267 176.014 71.363 176.479 70.5254C176.953 69.6878 177.599 69.0319 178.416 68.5576C179.244 68.0732 180.187 67.8311 181.247 67.8311C182.074 67.8311 182.856 67.9824 183.593 68.2852C184.34 68.5879 184.98 69.0218 185.515 69.5869L186.999 68.0278C186.262 67.2306 185.389 66.6201 184.38 66.1963C183.371 65.7725 182.291 65.5605 181.141 65.5605C179.637 65.5605 178.285 65.9036 177.084 66.5898C175.893 67.276 174.95 68.2145 174.253 69.4053C173.567 70.5859 173.224 71.9281 173.224 73.4316C173.224 74.9251 173.567 76.2673 174.253 77.458C174.95 78.6488 175.893 79.5872 177.084 80.2734C178.285 80.9596 179.637 81.3027 181.141 81.3027C182.301 81.3027 183.386 81.0908 184.395 80.667ZM191.285 58.2949V81H193.768V72.9321C193.768 71.3377 194.181 70.0814 195.009 69.1631C195.836 68.2448 196.972 67.7856 198.415 67.7856C199.848 67.7856 200.963 68.2397 201.76 69.1479C202.567 70.0461 202.971 71.3075 202.971 72.9321V81H205.453V72.3569C205.453 70.2176 204.888 68.5526 203.758 67.3618C202.638 66.161 201.074 65.5605 199.066 65.5605C196.674 65.5605 194.908 66.4183 193.768 68.1338V58.2949H191.285Z" fill="white" fill-opacity="0.8"/>
<path d="M64.7075 70.62C64.7075 70.8 64.6539 71 64.5824 71.08C64.1712 71.54 63.8316 73.28 63.5278 76.46L63.4026 77.82L64.3679 77.38C65.6191 76.8 67.7284 76.2 68.0144 76.32C68.1395 76.38 68.2825 76.7 68.354 77.02C68.4076 77.38 68.5328 77.58 68.6579 77.5C68.9081 77.32 71.5 76.6 71.8932 76.6C72.358 76.6 72.6976 77.1 72.8228 77.98C72.9658 79.04 72.6083 79.68 71.5715 80.22C70.8208 80.62 70.5705 81.06 70.5348 82C70.5169 82.32 70.356 82.58 70.0343 82.76L69.5516 83.02L69.9985 83.74C70.2309 84.14 70.4275 84.52 70.4275 84.62C70.4275 85.02 71.5715 84.26 72.4295 83.28C72.9479 82.68 73.502 82.14 73.6808 82.08C73.931 82 74.0025 81.76 74.0025 81.06C74.0025 79.96 73.8059 79.18 73.0551 77.4C72.4831 76 72.072 75.44 69.1763 72.1C68.1395 70.88 67.0134 69.42 66.6738 68.86L66.0839 67.8L65.3867 69.06C65.0114 69.74 64.7075 70.44 64.7075 70.62Z" fill="white" fill-opacity="0.8"/>
</svg>
